<svg width="539" height="90" viewBox="0 0 539 90" fill="none" xmlns="http://www.w3.org/2000/svg">
<path d="M0.144 90V0.399994H36.624C40.8053 1.93599 44.5173 4.624 47.76 8.464C51.0027 12.304 52.624 16.9547 52.624 22.416C52.624 32.0587 49.4667 38.8 43.152 42.64V43.152C51.0027 47.504 54.928 54.3307 54.928 63.632C54.928 74.2987 49.5093 83.088 38.672 90H0.144ZM17.552 37.392H30.224C33.9787 35.088 35.856 31.5893 35.856 26.896C35.856 22.2027 34.1067 18.4907 30.608 15.76H17.552V37.392ZM17.552 75.152H30.736C32.272 74.0427 33.6373 72.2933 34.832 69.904C36.112 67.5147 36.752 65.1253 36.752 62.736C36.752 60.3467 36.24 58.1707 35.216 56.208C34.192 54.2453 32.912 52.7947 31.376 51.856H17.552V75.152ZM64.269 0.399994H98.317C103.693 2.192 108.258 5.52 112.013 10.384C115.853 15.1627 117.773 21.0507 117.773 28.048C117.773 39.4827 113.25 47.888 104.205 53.264L117.133 90H99.213L88.333 57.36H81.549V90H64.269V0.399994ZM81.549 15.76V43.024H92.557C94.0077 42.6827 95.5863 41.232 97.293 38.672C99.085 36.0267 99.981 32.9547 99.981 29.456C99.981 25.9573 99.213 22.8853 97.677 20.24C96.2263 17.5947 94.7757 16.1013 93.325 15.76H81.549ZM369.769 90V0.399994H387.305V38.16H387.945L403.945 0.399994H421.993L403.305 43.152L422.889 90H403.433L388.201 50.832H387.305V90H369.769ZM429.019 90V0.399994H474.971V15.76H446.555V37.136H471.899V51.984H446.555V75.152H475.483V90H429.019ZM485.394 0.399994H519.442C524.818 2.192 529.383 5.52 533.138 10.384C536.978 15.1627 538.898 21.0507 538.898 28.048C538.898 39.4827 534.375 47.888 525.33 53.264L538.258 90H520.338L509.458 57.36H502.674V90H485.394V0.399994ZM502.674 15.76V43.024H513.682C515.133 42.6827 516.711 41.232 518.418 38.672C520.21 36.0267 521.106 32.9547 521.106 29.456C521.106 25.9573 520.338 22.8853 518.802 20.24C517.351 17.5947 515.901 16.1013 514.45 15.76H502.674Z" fill="white"/>
<path d="M167.497 0.399994C173.47 5.264 177.908 11.792 180.809 19.984C183.71 28.176 185.161 36.624 185.161 45.328C185.161 53.9467 183.753 62.1387 180.937 69.904C178.121 77.6693 173.641 84.368 167.497 90H141.129C134.985 84.368 130.505 77.6693 127.689 69.904C124.873 62.1387 123.465 53.9467 123.465 45.328C123.465 36.624 124.916 28.176 127.817 19.984C130.718 11.792 135.156 5.264 141.129 0.399994H167.497ZM149.705 75.152H158.921C161.054 72.6773 162.846 68.6667 164.297 63.12C165.833 57.488 166.601 51.5573 166.601 45.328C166.601 39.0987 165.876 33.2533 164.425 27.792C162.974 22.2453 161.182 18.2347 159.049 15.76H149.705C147.572 18.2347 145.737 22.2453 144.201 27.792C142.75 33.2533 142.025 39.0987 142.025 45.328C142.025 51.5573 142.75 57.488 144.201 63.12C145.737 68.6667 147.572 72.6773 149.705 75.152ZM214.886 48.912L222.822 24.592H240.614L228.454 56.464L241.126 90H223.59L214.758 64.656H214.246L205.798 90H188.262L200.934 56.464L188.774 24.592H206.31L214.374 48.912H214.886ZM289.497 0.399994C295.47 5.264 299.908 11.792 302.809 19.984C305.71 28.176 307.161 36.624 307.161 45.328C307.161 53.9467 305.753 62.1387 302.937 69.904C300.121 77.6693 295.641 84.368 289.497 90H263.129C256.985 84.368 252.505 77.6693 249.689 69.904C246.873 62.1387 245.465 53.9467 245.465 45.328C245.465 36.624 246.916 28.176 249.817 19.984C252.718 11.792 257.156 5.264 263.129 0.399994H289.497ZM271.705 75.152H280.921C283.054 72.6773 284.846 68.6667 286.297 63.12C287.833 57.488 288.601 51.5573 288.601 45.328C288.601 39.0987 287.876 33.2533 286.425 27.792C284.974 22.2453 283.182 18.2347 281.049 15.76H271.705C269.572 18.2347 267.737 22.2453 266.201 27.792C264.75 33.2533 264.025 39.0987 264.025 45.328C264.025 51.5573 264.75 57.488 266.201 63.12C267.737 68.6667 269.572 72.6773 271.705 75.152ZM336.886 48.912L344.822 24.592H362.614L350.454 56.464L363.126 90H345.59L336.758 64.656H336.246L327.798 90H310.262L322.934 56.464L310.774 24.592H328.31L336.374 48.912H336.886Z" fill="#FD0000"/>
</svg>
